<svg data-logo="logo" xmlns="http://www.w3.org/2000/svg" viewBox="0 0 146 43">
    <g style="opacity: 1;" id="logogram" transform="translate(0, 1) rotate(0)"><path d="M20.3018 10.27C20.3018 15.7928 15.8246 20.27 10.3018 20.27H0.301758V10.27C0.301758 4.74714 4.7789 0.269989 10.3018 0.269989C15.8246 0.269989 20.3018 4.74714 20.3018 10.27Z" fill="#1C9388"></path><path d="M20.3018 30.27C20.3018 24.7471 24.7789 20.27 30.3018 20.27H40.3018V30.27C40.3018 35.7928 35.8246 40.27 30.3018 40.27C24.7789 40.27 20.3018 35.7928 20.3018 30.27Z" fill="#1C9388"></path><path d="M0.301758 30.27C0.301758 35.7928 4.7789 40.27 10.3018 40.27H20.3018V30.27C20.3018 24.7471 15.8246 20.27 10.3018 20.27C4.7789 20.27 0.301758 24.7471 0.301758 30.27Z" fill="#1C9388"></path><path d="M40.3018 10.27C40.3018 4.74714 35.8246 0.269989 30.3018 0.269989H20.3018V10.27C20.3018 15.7928 24.7789 20.27 30.3018 20.27C35.8246 20.27 40.3018 15.7928 40.3018 10.27Z" fill="#1C9388"></path></g>
    <g style="opacity: 1;" id="logotype" transform="translate(47, 1.5)"><path fill="#1C9388" d="M28.61 10.23L28.61 10.23Q28.61 14.23 26.82 16.26Q25.04 18.29 21.08 18.95L21.08 18.95L21.08 19.47Q22.63 19.67 23.94 20.17Q25.24 20.66 26.26 21.55L26.26 21.55Q27.25 22.41 27.95 23.63Q28.64 24.85 28.94 26.21L28.94 26.21Q29.27 27.69 29.27 29.51L29.27 29.51Q29.27 31.42 28.85 33.07Q28.44 34.72 27.62 36.01L27.62 36.01Q26.72 37.36 25.54 38.23Q24.35 39.11 22.93 39.54L22.93 39.54Q21.41 40 19.63 40L19.63 40L7.98 40L7.98 0.73L19.33 0.73Q21.02 0.73 22.48 1.14Q23.95 1.55 25.07 2.35L25.07 2.35Q26.16 3.17 26.94 4.26Q27.71 5.35 28.21 6.93L28.21 6.93Q28.41 7.69 28.51 8.52Q28.61 9.34 28.61 10.23ZM17.35 7.99L17.35 7.99L15.74 7.99L15.74 16.14L17.35 16.14Q18.70 16.14 19.56 15.41L19.56 15.41Q19.96 15.08 20.24 14.62Q20.52 14.16 20.72 13.47L20.72 13.47Q20.78 13.14 20.82 12.79Q20.85 12.45 20.85 12.08L20.85 12.08Q20.85 10.56 20.26 9.54L20.26 9.54Q19.96 9.08 19.53 8.70Q19.10 8.32 18.57 8.15L18.57 8.15Q17.95 7.99 17.35 7.99ZM15.74 23.40L15.74 32.74L17.75 32.74Q19.17 32.74 20.09 31.95L20.09 31.95Q20.59 31.55 20.88 30.97Q21.18 30.40 21.34 29.67L21.34 29.67Q21.51 28.88 21.51 28.05L21.51 28.05Q21.51 27.26 21.33 26.49Q21.15 25.71 20.85 25.15L20.85 25.15Q20.16 23.96 19.04 23.60L19.04 23.60Q18.44 23.40 17.75 23.40L17.75 23.40L15.74 23.40ZM31.91 32.74L31.91 32.74L31.91 11.29L39.33 11.29L39.33 31.42Q39.33 32.11 39.66 32.61L39.66 32.61Q39.76 32.77 40.01 32.94Q40.25 33.10 40.55 33.17L40.55 33.17Q40.85 33.23 41.11 33.23L41.11 33.23Q41.38 33.23 41.61 33.19Q41.84 33.14 42.10 33.07L42.10 33.07Q42.40 33.00 42.60 32.89Q42.80 32.77 43.13 32.61L43.13 32.61Q43.26 32.54 43.37 32.46Q43.49 32.38 43.62 32.28L43.62 32.28L43.62 11.29L51.05 11.29L51.05 40L43.62 40Q43.62 39.67 43.69 39.34Q43.75 39.01 43.88 38.55L43.88 38.55Q43.95 38.22 44.12 37.76Q44.28 37.29 44.45 36.96L44.45 36.96Q44.54 36.80 44.64 36.63L44.64 36.63Q44.71 36.47 44.81 36.34L44.81 36.34L44.54 36.14Q43.95 36.93 43.34 37.62Q42.73 38.32 42.07 38.78L42.07 38.78Q41.38 39.27 40.70 39.62Q40.02 39.97 39.23 40.13L39.23 40.13Q38.87 40.23 38.49 40.28Q38.11 40.33 37.71 40.33L37.71 40.33Q35.63 40.33 34.12 39.01L34.12 39.01Q33.39 38.38 32.91 37.43Q32.43 36.47 32.17 35.35L32.17 35.35Q31.91 34.16 31.91 32.74ZM75.30 10.23L75.30 10.23Q75.30 14.23 73.52 16.26Q71.74 18.29 67.78 18.95L67.78 18.95L67.78 19.47Q69.33 19.67 70.63 20.17Q71.93 20.66 72.96 21.55L72.96 21.55Q73.95 22.41 74.64 23.63Q75.33 24.85 75.63 26.21L75.63 26.21Q75.96 27.69 75.96 29.51L75.96 29.51Q75.96 31.42 75.55 33.07Q75.14 34.72 74.31 36.01L74.31 36.01Q73.42 37.36 72.23 38.23Q71.04 39.11 69.62 39.54L69.62 39.54Q68.11 40 66.32 40L66.32 40L54.68 40L54.68 0.73L66.03 0.73Q67.71 0.73 69.18 1.14Q70.65 1.55 71.77 2.35L71.77 2.35Q72.86 3.17 73.63 4.26Q74.41 5.35 74.90 6.93L74.90 6.93Q75.10 7.69 75.20 8.52Q75.30 9.34 75.30 10.23ZM64.05 7.99L64.05 7.99L62.43 7.99L62.43 16.14L64.05 16.14Q65.40 16.14 66.26 15.41L66.26 15.41Q66.65 15.08 66.93 14.62Q67.22 14.16 67.41 13.47L67.41 13.47Q67.48 13.14 67.51 12.79Q67.55 12.45 67.55 12.08L67.55 12.08Q67.55 10.56 66.95 9.54L66.95 9.54Q66.65 9.08 66.23 8.70Q65.80 8.32 65.27 8.15L65.27 8.15Q64.64 7.99 64.05 7.99ZM62.43 23.40L62.43 32.74L64.44 32.74Q65.86 32.74 66.79 31.95L66.79 31.95Q67.28 31.55 67.58 30.97Q67.88 30.40 68.04 29.67L68.04 29.67Q68.21 28.88 68.21 28.05L68.21 28.05Q68.21 27.26 68.02 26.49Q67.84 25.71 67.55 25.15L67.55 25.15Q66.85 23.96 65.73 23.60L65.73 23.60Q65.14 23.40 64.44 23.40L64.44 23.40L62.43 23.40ZM78.60 32.74L78.60 32.74L78.60 11.29L86.03 11.29L86.03 31.42Q86.03 32.11 86.36 32.61L86.36 32.61Q86.45 32.77 86.70 32.94Q86.95 33.10 87.25 33.17L87.25 33.17Q87.54 33.23 87.81 33.23L87.81 33.23Q88.07 33.23 88.30 33.19Q88.53 33.14 88.80 33.07L88.80 33.07Q89.09 33.00 89.29 32.89Q89.49 32.77 89.82 32.61L89.82 32.61Q89.95 32.54 90.07 32.46Q90.18 32.38 90.32 32.28L90.32 32.28L90.32 11.29L97.74 11.29L97.74 40L90.32 40Q90.32 39.67 90.38 39.34Q90.45 39.01 90.58 38.55L90.58 38.55Q90.65 38.22 90.81 37.76Q90.98 37.29 91.14 36.96L91.14 36.96Q91.24 36.80 91.34 36.63L91.34 36.63Q91.40 36.47 91.50 36.34L91.50 36.34L91.24 36.14Q90.65 36.93 90.03 37.62Q89.42 38.32 88.76 38.78L88.76 38.78Q88.07 39.27 87.39 39.62Q86.72 39.97 85.93 40.13L85.93 40.13Q85.56 40.23 85.18 40.28Q84.80 40.33 84.41 40.33L84.41 40.33Q82.33 40.33 80.81 39.01L80.81 39.01Q80.09 38.38 79.61 37.43Q79.13 36.47 78.86 35.35L78.86 35.35Q78.60 34.16 78.60 32.74Z"></path></g>

</svg>